<?xml version="1.0" encoding="UTF-8" standalone="no"?><!DOCTYPE svg PUBLIC "-//W3C//DTD SVG 1.1//EN" "http://www.w3.org/Graphics/SVG/1.1/DTD/svg11.dtd"><svg width="100%" height="100%" viewBox="0 0 2500 834" version="1.1" xmlns="http://www.w3.org/2000/svg" xmlns:xlink="http://www.w3.org/1999/xlink" xml:space="preserve" xmlns:serif="http://www.serif.com/" style="fill-rule:evenodd;clip-rule:evenodd;stroke-linejoin:round;stroke-miterlimit:2;"><g><path d="M490.179,349.628l-82.186,-14.825c9.239,-33.09 25.139,-57.585 47.7,-73.485c22.561,-15.9 56.08,-23.85 100.557,-23.85c40.395,0 70.476,4.781 90.244,14.342c19.768,9.562 33.68,21.702 41.738,36.42c8.057,14.719 12.086,41.738 12.086,81.059l-0.967,105.714c0,30.081 1.451,52.266 4.351,66.555c2.901,14.288 8.326,29.598 16.276,45.927l-89.599,0c-2.363,-6.016 -5.264,-14.933 -8.702,-26.75c-1.504,-5.372 -2.578,-8.917 -3.223,-10.636c-15.47,15.04 -32.015,26.321 -49.634,33.841c-17.619,7.52 -36.42,11.281 -56.402,11.281c-35.239,-0 -63.01,-9.562 -83.315,-28.685c-20.305,-19.123 -30.457,-43.296 -30.457,-72.517c-0,-19.338 4.619,-36.581 13.859,-51.73c9.239,-15.148 22.185,-26.75 38.837,-34.808c16.652,-8.057 40.663,-15.094 72.034,-21.11c42.328,-7.951 71.658,-15.363 87.988,-22.239l-0,-9.025c-0,-17.404 -4.298,-29.812 -12.892,-37.225c-8.595,-7.413 -24.818,-11.119 -48.668,-11.119c-16.115,-0 -28.684,3.169 -37.709,9.507c-9.024,6.339 -16.33,17.458 -21.916,33.358Zm121.185,73.485c-11.603,3.867 -29.974,8.487 -55.114,13.859c-25.139,5.371 -41.576,10.635 -49.312,15.792c-11.817,8.38 -17.726,19.016 -17.726,31.908c-0,12.677 4.727,23.635 14.181,32.874c9.454,9.24 21.487,13.859 36.098,13.859c16.33,0 31.907,-5.371 46.733,-16.115c10.958,-8.165 18.156,-18.156 21.594,-29.974c2.364,-7.735 3.546,-22.453 3.546,-44.155l-0,-18.048Z" style="fill:#3599f0;fill-rule:nonzero;"/><path d="M785.728,587.485l-0,-472.491l90.566,0l-0,170.174c27.932,-31.8 61.022,-47.7 99.268,-47.7c41.684,0 76.17,15.094 103.458,45.283c27.288,30.189 40.932,73.538 40.932,130.048c0,58.444 -13.912,103.458 -41.738,135.044c-27.825,31.585 -61.613,47.378 -101.363,47.378c-19.553,-0 -38.837,-4.889 -57.853,-14.665c-19.015,-9.776 -35.399,-24.226 -49.15,-43.349l-0,50.278l-84.12,0Zm89.921,-178.554c0,35.453 5.587,61.667 16.76,78.642c15.685,24.065 36.527,36.097 62.526,36.097c19.982,0 37.011,-8.541 51.084,-25.623c14.074,-17.082 21.111,-43.994 21.111,-80.736c-0,-39.105 -7.091,-67.307 -21.272,-84.603c-14.181,-17.297 -32.337,-25.945 -54.468,-25.945c-21.702,-0 -39.751,8.433 -54.147,25.3c-14.396,16.867 -21.594,42.49 -21.594,76.868Z" style="fill:#3599f0;fill-rule:nonzero;"/><path d="M1160.88,489.829l90.889,-13.859c3.867,17.619 11.71,30.994 23.528,40.126c11.817,9.132 28.362,13.698 49.634,13.698c23.42,-0 41.039,-4.298 52.857,-12.892c7.95,-6.016 11.925,-14.074 11.925,-24.173c-0,-6.875 -2.149,-12.569 -6.446,-17.082c-4.512,-4.297 -14.611,-8.272 -30.296,-11.925c-73.055,-16.115 -119.359,-30.833 -138.911,-44.155c-27.074,-18.478 -40.61,-44.155 -40.61,-77.029c-0,-29.652 11.71,-54.576 35.131,-74.774c23.42,-20.197 59.732,-30.296 108.937,-30.296c46.841,0 81.649,7.628 104.425,22.883c22.776,15.256 38.461,37.817 47.056,67.683l-85.41,15.793c-3.653,-13.322 -10.582,-23.528 -20.788,-30.618c-10.206,-7.091 -24.764,-10.636 -43.672,-10.636c-23.85,-0 -40.932,3.33 -51.245,9.991c-6.876,4.727 -10.314,10.851 -10.314,18.371c0,6.446 3.008,11.925 9.024,16.437c8.165,6.017 36.367,14.504 84.604,25.462c48.238,10.958 81.918,24.387 101.041,40.287c18.908,16.115 28.362,38.569 28.362,67.361c0,31.37 -13.107,58.336 -39.32,80.897c-26.214,22.561 -64.997,33.842 -116.35,33.842c-46.626,-0 -83.53,-9.455 -110.71,-28.363c-27.181,-18.908 -44.961,-44.585 -53.341,-77.029Z" style="fill:#3599f0;fill-rule:nonzero;"/><path d="M1710.08,726.396l-62.204,0c-32.875,-49.634 -57.907,-101.202 -75.096,-154.703c-17.189,-53.502 -25.784,-105.285 -25.784,-155.349c0,-62.096 10.636,-120.862 31.908,-176.297c18.478,-48.131 41.899,-92.5 70.261,-133.11l61.881,-0c-29.436,65.104 -49.687,120.486 -60.753,166.145c-11.066,45.659 -16.598,94.058 -16.598,145.196c-0,35.238 3.276,71.336 9.83,108.293c6.553,36.957 15.524,72.087 26.912,105.392c7.52,21.916 20.734,53.394 39.643,94.433Z" style="fill:#3599f0;fill-rule:nonzero;"/><path d="M1937.95,726.396c17.834,-38.246 30.404,-67.575 37.709,-87.987c7.306,-20.413 14.074,-43.94 20.305,-70.584c6.231,-26.643 10.851,-51.944 13.859,-75.901c3.008,-23.958 4.512,-48.506 4.512,-73.646c0,-51.138 -5.479,-99.537 -16.437,-145.196c-10.958,-45.659 -31.156,-101.041 -60.592,-166.145l61.559,-0c32.445,46.196 57.638,95.186 75.579,146.968c17.941,51.783 26.912,104.318 26.912,157.605c0,44.907 -7.09,93.037 -21.272,144.39c-16.115,57.584 -42.651,114.416 -79.608,170.496l-62.526,0Z" style="fill:#3599f0;fill-rule:nonzero;"/></g></svg>