<?xml version="1.0" encoding="UTF-8" standalone="no"?><!DOCTYPE svg PUBLIC "-//W3C//DTD SVG 1.1//EN" "http://www.w3.org/Graphics/SVG/1.1/DTD/svg11.dtd"><svg width="100%" height="100%" viewBox="0 0 10417 3475" version="1.1" xmlns="http://www.w3.org/2000/svg" xmlns:xlink="http://www.w3.org/1999/xlink" xml:space="preserve" xmlns:serif="http://www.serif.com/" style="fill-rule:evenodd;clip-rule:evenodd;stroke-linejoin:round;stroke-miterlimit:2;"><g><path d="M1737.17,1458.19l-342.416,-61.767c38.497,-137.865 104.741,-239.916 198.739,-306.16c93.997,-66.245 233.645,-99.369 418.954,-99.369c168.3,-0 293.625,19.919 375.985,59.754c82.36,39.839 140.322,90.418 173.896,151.74c33.569,61.322 50.354,173.891 50.354,337.713l-4.029,440.441c-0,125.33 6.041,217.76 18.127,277.29c12.087,59.53 34.692,123.313 67.812,191.35l-373.298,-0c-9.85,-25.067 -21.932,-62.216 -36.256,-111.451c-6.27,-22.381 -10.743,-37.154 -13.429,-44.313c-64.457,62.665 -133.388,109.663 -206.791,140.991c-73.409,31.333 -151.74,46.999 -234.994,46.999c-146.812,-0 -262.517,-39.835 -347.113,-119.509c-84.597,-79.674 -126.898,-180.382 -126.898,-302.132c0,-80.567 19.246,-152.408 57.743,-215.518c38.491,-63.114 92.429,-111.456 161.809,-145.025c69.375,-33.569 169.418,-62.889 300.115,-87.952c176.357,-33.124 298.552,-64.007 366.589,-92.654l-0,-37.598c-0,-72.515 -17.908,-124.211 -53.714,-155.095c-35.81,-30.888 -103.398,-46.329 -202.762,-46.329c-67.143,-0 -119.514,13.205 -157.112,39.615c-37.598,26.409 -68.032,72.734 -91.311,138.979Zm504.899,306.16c-48.342,16.116 -124.881,35.362 -229.622,57.743c-104.741,22.381 -173.222,44.312 -205.448,65.795c-49.236,34.912 -73.858,79.225 -73.858,132.938c-0,52.82 19.695,98.471 59.085,136.968c39.39,38.491 89.52,57.742 150.397,57.742c68.032,-0 132.938,-22.381 194.705,-67.143c45.655,-34.018 75.645,-75.645 89.968,-124.881c9.845,-32.226 14.773,-93.548 14.773,-183.966l-0,-75.196Z" style="fill:#3599f0;fill-rule:nonzero;"/><path d="M2968.53,2449.19l-0,-1968.55l377.327,-0l0,708.999c116.379,-132.489 254.24,-198.733 413.583,-198.733c173.672,-0 317.353,62.889 431.041,188.664c113.693,125.779 170.537,306.385 170.537,541.823c-0,243.495 -57.963,431.041 -173.892,562.636c-115.929,131.595 -256.7,197.391 -422.314,197.391c-81.462,-0 -161.809,-20.364 -241.034,-61.098c-79.225,-40.728 -147.482,-100.932 -204.775,-180.606l-0,209.478l-350.473,-0Zm374.642,-743.917c-0,147.711 23.274,256.925 69.824,327.648c65.351,100.263 152.189,150.392 260.505,150.392c83.253,0 154.2,-35.581 212.837,-106.753c58.636,-71.167 87.951,-183.292 87.951,-336.37c0,-162.928 -29.54,-280.425 -88.625,-352.49c-59.081,-72.061 -134.726,-108.096 -226.931,-108.096c-90.418,-0 -165.614,35.137 -225.593,105.41c-59.979,70.273 -89.968,177.026 -89.968,320.259Z" style="fill:#3599f0;fill-rule:nonzero;"/><path d="M4531.56,2042.32l378.675,-57.743c16.111,73.409 48.786,129.134 98.021,167.182c49.236,38.042 118.171,57.068 206.792,57.068c97.581,0 170.985,-17.907 220.221,-53.713c33.124,-25.067 49.684,-58.636 49.684,-100.712c0,-28.647 -8.951,-52.366 -26.854,-71.168c-18.801,-17.903 -60.873,-34.467 -126.224,-49.684c-304.373,-67.139 -497.285,-128.46 -578.752,-183.966c-112.794,-76.984 -169.193,-183.961 -169.193,-320.928c0,-123.538 48.791,-227.385 146.368,-311.533c97.577,-84.147 248.867,-126.223 453.867,-126.223c195.154,-0 340.178,31.781 435.07,95.34c94.891,63.559 160.241,157.556 196.047,281.987l-355.84,65.8c-15.222,-55.505 -44.088,-98.026 -86.614,-127.566c-42.52,-29.545 -103.168,-44.313 -181.949,-44.313c-99.369,0 -170.536,13.874 -213.506,41.627c-28.646,19.695 -42.97,45.207 -42.97,76.539c0,26.854 12.531,49.685 37.598,68.481c34.019,25.067 151.515,60.428 352.486,106.084c200.975,45.656 341.297,101.606 420.971,167.851c78.78,67.138 118.166,160.691 118.166,280.644c-0,130.702 -54.607,243.051 -163.822,337.048c-109.214,93.993 -270.799,140.992 -484.754,140.992c-194.256,-0 -348.008,-39.386 -461.251,-118.166c-113.243,-78.776 -187.321,-185.753 -222.237,-320.928Z" style="fill:#3599f0;fill-rule:nonzero;"/><path d="M6819.71,3027.94l-259.162,-0c-136.967,-206.796 -241.259,-421.646 -312.875,-644.548c-71.616,-222.907 -107.422,-438.649 -107.422,-647.233c-0,-258.717 44.312,-503.556 132.938,-734.516c76.988,-200.526 174.565,-385.385 292.731,-554.579l257.819,0c-122.644,271.244 -207.016,501.984 -253.121,692.216c-46.1,190.231 -69.15,391.875 -69.15,604.937c-0,146.812 13.649,297.204 40.953,451.181c27.303,153.976 64.677,300.339 112.125,439.098c31.332,91.312 86.388,222.458 165.164,393.444Z" style="fill:#3599f0;fill-rule:nonzero;"/><path d="M8380.05,3027.94c74.302,-159.349 126.673,-281.543 157.107,-366.589c30.439,-85.046 58.636,-183.068 84.597,-294.074c25.96,-111.007 45.206,-216.417 57.742,-316.231c12.531,-99.813 18.797,-202.093 18.797,-306.829c-0,-213.062 -22.826,-414.706 -68.482,-604.937c-45.655,-190.232 -129.803,-420.972 -252.447,-692.215l256.476,-0c135.175,192.468 240.136,396.573 314.888,612.316c74.751,215.747 112.124,434.625 112.124,656.634c0,187.096 -29.54,387.622 -88.625,601.577c-67.138,239.916 -177.7,476.697 -331.672,710.348l-260.505,-0Z" style="fill:#3599f0;fill-rule:nonzero;"/></g><path d="M8013.05,1493.01l-369.279,425.587l-192.023,208.093c104.741,-6.266 169.642,-9.396 194.709,-9.396l584.119,-0l0,331.607l-1272.98,0l0,-294.019l54.016,-62.009c114.165,-125.586 395.047,-406.524 704.719,-506.696c246.672,-79.797 296.718,-93.167 296.718,-93.167Zm-1001.47,599.904l0.037,-0.041l-0.037,0.041Zm1177.37,-1058.71c-0.893,53.507 -15.405,284.783 -197.551,342.901c-337.149,107.569 -495.273,160.512 -496.438,160.902c86.243,-98.484 150.173,-168.529 191.781,-210.128c-43.864,2.686 -101.606,4.473 -173.222,5.367l-503.551,2.686l-0,-312.811l1178.98,-0l0,11.083Z" style="fill-rule:nonzero;"/></svg>