<?xml version="1.0" encoding="UTF-8" standalone="no"?><!DOCTYPE svg PUBLIC "-//W3C//DTD SVG 1.1//EN" "http://www.w3.org/Graphics/SVG/1.1/DTD/svg11.dtd"><svg width="100%" height="100%" viewBox="0 0 2500 834" version="1.1" xmlns="http://www.w3.org/2000/svg" xmlns:xlink="http://www.w3.org/1999/xlink" xml:space="preserve" xmlns:serif="http://www.serif.com/" style="fill-rule:evenodd;clip-rule:evenodd;stroke-linejoin:round;stroke-miterlimit:2;"><g><path d="M580.671,355.729l-74.707,-13.476c8.399,-30.079 22.852,-52.344 43.36,-66.797c20.508,-14.453 50.976,-21.68 91.406,-21.68c36.719,0 64.062,4.346 82.031,13.037c17.969,8.692 30.615,19.727 37.94,33.106c7.324,13.379 10.986,37.939 10.986,73.681l-0.879,96.094c0,27.344 1.318,47.51 3.955,60.498c2.637,12.988 7.569,26.904 14.795,41.748l-81.445,0c-2.149,-5.469 -4.785,-13.574 -7.91,-24.316c-1.368,-4.883 -2.344,-8.106 -2.93,-9.668c-14.063,13.672 -29.102,23.926 -45.117,30.761c-16.016,6.836 -33.106,10.254 -51.27,10.254c-32.031,0 -57.275,-8.691 -75.732,-26.074c-18.457,-17.383 -27.686,-39.355 -27.686,-65.918c0,-17.578 4.199,-33.252 12.598,-47.021c8.398,-13.77 20.166,-24.317 35.303,-31.641c15.136,-7.324 36.963,-13.721 65.478,-19.189c38.477,-7.227 65.137,-13.965 79.981,-20.215l-0,-8.203c-0,-15.821 -3.907,-27.1 -11.719,-33.838c-7.813,-6.739 -22.559,-10.108 -44.238,-10.108c-14.649,0 -26.075,2.881 -34.278,8.643c-8.203,5.762 -14.843,15.869 -19.922,30.322Zm110.157,66.797c-10.547,3.516 -27.246,7.715 -50.098,12.598c-22.852,4.883 -37.793,9.668 -44.824,14.355c-10.742,7.617 -16.114,17.285 -16.114,29.004c0,11.524 4.297,21.484 12.891,29.883c8.594,8.398 19.531,12.598 32.813,12.598c14.843,-0 29.004,-4.883 42.48,-14.649c9.961,-7.422 16.504,-16.504 19.629,-27.246c2.148,-7.031 3.223,-20.41 3.223,-40.137l-0,-16.406Z" style="fill:#3599f0;fill-rule:nonzero;"/><path d="M849.324,571.94l-0,-429.492l82.324,-0l-0,154.687c25.391,-28.906 55.469,-43.359 90.234,-43.359c37.891,0 69.239,13.721 94.043,41.162c24.805,27.442 37.207,66.846 37.207,118.213c0,53.125 -12.646,94.043 -37.939,122.754c-25.293,28.711 -56.006,43.066 -92.139,43.066c-17.773,0 -35.303,-4.443 -52.588,-13.33c-17.285,-8.886 -32.177,-22.021 -44.677,-39.404l-0,45.703l-76.465,0Zm81.738,-162.305c0,32.227 5.078,56.055 15.234,71.485c14.258,21.875 33.204,32.812 56.836,32.812c18.164,0 33.643,-7.763 46.436,-23.291c12.793,-15.527 19.189,-39.99 19.189,-73.388c0,-35.547 -6.445,-61.182 -19.336,-76.905c-12.89,-15.722 -29.394,-23.584 -49.511,-23.584c-19.727,0 -36.133,7.666 -49.219,22.998c-13.086,15.332 -19.629,38.623 -19.629,69.873Z" style="fill:#3599f0;fill-rule:nonzero;"/><path d="M1190.34,483.171l82.618,-12.598c3.515,16.016 10.644,28.174 21.386,36.475c10.742,8.3 25.782,12.451 45.117,12.451c21.29,-0 37.305,-3.907 48.047,-11.719c7.227,-5.469 10.84,-12.793 10.84,-21.973c0,-6.25 -1.953,-11.425 -5.859,-15.527c-4.102,-3.906 -13.281,-7.52 -27.539,-10.84c-66.407,-14.648 -108.496,-28.027 -126.27,-40.137c-24.609,-16.796 -36.914,-40.136 -36.914,-70.019c0,-26.953 10.645,-49.61 31.934,-67.969c21.289,-18.359 54.297,-27.539 99.023,-27.539c42.578,0 74.219,6.934 94.922,20.801c20.703,13.867 34.961,34.375 42.773,61.523l-77.636,14.356c-3.321,-12.11 -9.619,-21.387 -18.897,-27.832c-9.277,-6.446 -22.509,-9.668 -39.697,-9.668c-21.68,-0 -37.207,3.027 -46.582,9.082c-6.25,4.297 -9.375,9.863 -9.375,16.699c-0,5.859 2.734,10.84 8.203,14.941c7.422,5.469 33.057,13.184 76.904,23.145c43.848,9.961 74.463,22.168 91.846,36.621c17.188,14.648 25.781,35.059 25.781,61.23c0,28.516 -11.914,53.028 -35.742,73.536c-23.828,20.507 -59.082,30.761 -105.762,30.761c-42.382,0 -75.927,-8.593 -100.634,-25.781c-24.707,-17.187 -40.869,-40.527 -48.487,-70.019Z" style="fill:#3599f0;fill-rule:nonzero;"/><path d="M1689.56,698.21l-56.543,-0c-29.883,-45.118 -52.637,-91.993 -68.262,-140.625c-15.625,-48.633 -23.437,-95.703 -23.437,-141.211c-0,-56.446 9.668,-109.864 29.004,-160.254c16.797,-43.75 38.086,-84.082 63.867,-120.996l56.25,-0c-26.758,59.179 -45.166,109.521 -55.225,151.025c-10.058,41.504 -15.087,85.498 -15.087,131.983c-0,32.031 2.978,64.843 8.935,98.437c5.957,33.594 14.111,65.527 24.463,95.801c6.836,19.922 18.848,48.535 36.035,85.84Z" style="fill:#3599f0;fill-rule:nonzero;"/><path d="M2029.99,698.21c16.211,-34.766 27.637,-61.426 34.277,-79.981c6.641,-18.555 12.793,-39.941 18.457,-64.16c5.664,-24.219 9.863,-47.217 12.598,-68.994c2.734,-21.777 4.101,-44.092 4.101,-66.943c0,-46.485 -4.98,-90.479 -14.941,-131.983c-9.961,-41.504 -28.32,-91.846 -55.078,-151.025l55.957,-0c29.492,41.992 52.392,86.523 68.701,133.593c16.309,47.071 24.463,94.825 24.463,143.262c-0,40.82 -6.445,84.57 -19.336,131.25c-14.648,52.344 -38.77,104.004 -72.363,154.981l-56.836,-0Z" style="fill:#3599f0;fill-rule:nonzero;"/></g><path d="M1949.92,363.325l-80.568,92.853l-41.895,45.401c22.852,-1.367 37.012,-2.05 42.481,-2.05l127.441,-0l0,72.349l-277.734,-0l-0,-64.148l11.785,-13.529c24.908,-27.4 86.19,-88.694 153.753,-110.549c53.818,-17.41 64.737,-20.327 64.737,-20.327Zm-218.498,130.885l0.008,-0.009l-0.008,0.009Zm256.875,-230.985c-0.195,11.674 -3.361,62.133 -43.101,74.813c-73.558,23.469 -108.057,35.02 -108.311,35.105c18.816,-21.487 32.764,-36.769 41.842,-45.845c-9.57,0.586 -22.168,0.976 -37.793,1.171l-109.863,0.586l-0,-68.248l257.226,0l0,2.418Z" style="fill:#fff;fill-rule:nonzero;"/></svg>