<?xml version="1.0" encoding="UTF-8" standalone="no"?><!DOCTYPE svg PUBLIC "-//W3C//DTD SVG 1.1//EN" "http://www.w3.org/Graphics/SVG/1.1/DTD/svg11.dtd"><svg width="100%" height="100%" viewBox="0 0 2500 834" version="1.1" xmlns="http://www.w3.org/2000/svg" xmlns:xlink="http://www.w3.org/1999/xlink" xml:space="preserve" xmlns:serif="http://www.serif.com/" style="fill-rule:evenodd;clip-rule:evenodd;stroke-linejoin:round;stroke-miterlimit:2;"><g><path d="M288.504,349.634l-82.179,-14.824c9.238,-33.087 25.137,-57.579 47.696,-73.478c22.559,-15.899 56.075,-23.848 100.549,-23.848c40.391,-0 70.47,4.78 90.236,14.341c19.766,9.561 33.677,21.7 41.734,36.417c8.057,14.717 12.085,41.734 12.085,81.051l-0.967,105.705c0,30.078 1.45,52.261 4.351,66.549c2.9,14.287 8.325,29.595 16.274,45.923l-89.591,0c-2.363,-6.015 -5.264,-14.932 -8.701,-26.748c-1.504,-5.371 -2.578,-8.916 -3.223,-10.635c-15.469,15.039 -32.012,26.319 -49.63,33.838c-17.617,7.52 -36.416,11.28 -56.397,11.28c-35.235,-0 -63.004,-9.561 -83.307,-28.682c-20.303,-19.122 -30.455,-43.292 -30.455,-72.511c0,-19.337 4.619,-36.578 13.858,-51.725c9.238,-15.147 22.183,-26.748 38.833,-34.805c16.651,-8.057 40.66,-15.093 72.028,-21.109c42.325,-7.949 71.652,-15.361 87.98,-22.237l0,-9.023c0,-17.403 -4.297,-29.81 -12.891,-37.222c-8.594,-7.413 -24.815,-11.119 -48.663,-11.119c-16.113,0 -28.682,3.169 -37.705,9.507c-9.024,6.338 -16.329,17.457 -21.915,33.355Zm121.174,73.478c-11.602,3.867 -29.971,8.487 -55.108,13.858c-25.137,5.371 -41.573,10.635 -49.308,15.791c-11.816,8.379 -17.725,19.014 -17.725,31.905c0,12.676 4.727,23.633 14.18,32.872c9.454,9.238 21.485,13.857 36.095,13.857c16.328,0 31.904,-5.371 46.729,-16.113c10.957,-8.165 18.155,-18.155 21.592,-29.972c2.363,-7.734 3.545,-22.451 3.545,-44.151l0,-18.047Z" style="fill:#3599f0;fill-rule:nonzero;"/><path d="M584.027,587.47l-0,-472.449l90.558,-0l-0,170.159c27.93,-31.797 61.017,-47.696 99.259,-47.696c41.681,-0 76.164,15.093 103.449,45.279c27.286,30.186 40.929,73.532 40.929,130.036c-0,58.439 -13.911,103.449 -41.734,135.032c-27.823,31.583 -61.608,47.374 -101.354,47.374c-19.552,-0 -38.834,-4.888 -57.848,-14.663c-19.014,-9.776 -35.396,-24.225 -49.146,-43.346l-0,50.274l-84.113,0Zm89.913,-178.538c0,35.45 5.586,61.661 16.758,78.634c15.684,24.063 36.525,36.095 62.521,36.095c19.981,-0 37.008,-8.541 51.08,-25.621c14.073,-17.08 21.109,-43.99 21.109,-80.729c-0,-39.102 -7.09,-67.301 -21.27,-84.596c-14.18,-17.295 -32.335,-25.943 -54.464,-25.943c-21.699,0 -39.747,8.433 -54.141,25.299c-14.395,16.865 -21.593,42.486 -21.593,76.861Z" style="fill:#3599f0;fill-rule:nonzero;"/><path d="M959.15,489.822l90.881,-13.857c3.867,17.617 11.709,30.991 23.526,40.122c11.816,9.131 28.359,13.697 49.629,13.697c23.419,-0 41.036,-4.297 52.853,-12.891c7.949,-6.016 11.924,-14.073 11.924,-24.17c-0,-6.875 -2.149,-12.569 -6.446,-17.081c-4.511,-4.297 -14.609,-8.271 -30.293,-11.924c-73.048,-16.113 -119.348,-30.83 -138.899,-44.151c-27.071,-18.477 -40.606,-44.151 -40.606,-77.023c-0,-29.649 11.709,-54.571 35.127,-74.767c23.419,-20.195 59.728,-30.293 108.928,-30.293c46.837,-0 81.642,7.627 104.416,22.881c22.774,15.254 38.458,37.813 47.052,67.677l-85.402,15.791c-3.653,-13.32 -10.582,-23.525 -20.787,-30.615c-10.205,-7.09 -24.761,-10.635 -43.668,-10.635c-23.848,-0 -40.928,3.33 -51.241,9.99c-6.875,4.727 -10.312,10.85 -10.312,18.37c-0,6.445 3.008,11.924 9.023,16.435c8.164,6.016 36.363,14.503 84.596,25.46c48.234,10.957 81.911,24.385 101.032,40.284c18.907,16.113 28.36,38.565 28.36,67.354c0,31.368 -13.105,58.331 -39.317,80.89c-26.211,22.559 -64.991,33.839 -116.34,33.839c-46.622,-0 -83.522,-9.453 -110.7,-28.36c-27.178,-18.907 -44.957,-44.581 -53.336,-77.023Z" style="fill:#3599f0;fill-rule:nonzero;"/><path d="M1508.3,726.369l-62.198,0c-32.872,-49.63 -57.901,-101.193 -75.089,-154.69c-17.188,-53.497 -25.782,-105.275 -25.782,-155.335c0,-62.091 10.635,-120.851 31.905,-176.282c18.477,-48.126 41.895,-92.492 70.255,-133.098l61.876,0c-29.434,65.099 -49.683,120.476 -60.748,166.131c-11.065,45.655 -16.597,94.049 -16.597,145.183c0,35.235 3.276,71.329 9.829,108.283c6.553,36.954 15.523,72.081 26.91,105.383c7.52,21.914 20.733,53.389 39.639,94.425Z" style="fill:#3599f0;fill-rule:nonzero;"/><path d="M2139.63,726.369c17.833,-38.243 30.401,-67.569 37.706,-87.98c7.305,-20.41 14.073,-43.936 20.303,-70.577c6.231,-26.641 10.85,-51.94 13.858,-75.895c3.008,-23.956 4.512,-48.502 4.512,-73.639c-0,-51.134 -5.479,-99.528 -16.436,-145.183c-10.957,-45.655 -31.153,-101.032 -60.587,-166.131l61.554,0c32.442,46.192 57.632,95.178 75.572,146.956c17.94,51.778 26.91,104.308 26.91,157.59c-0,44.903 -7.09,93.029 -21.27,144.378c-16.114,57.579 -42.647,114.406 -79.601,170.481l-62.521,0Z" style="fill:#3599f0;fill-rule:nonzero;"/><path d="M1626.54,245.256l27.984,-0l-0,46.743c29.863,-36.32 65.421,-54.48 106.671,-54.48c21.915,-0 40.929,4.513 57.042,13.539c16.114,9.027 29.327,22.674 39.64,40.941c15.039,-18.267 31.26,-31.914 48.663,-40.941c17.402,-9.026 35.987,-13.539 55.752,-13.539c25.138,-0 46.408,5.104 63.81,15.312c17.403,10.209 30.401,25.199 38.995,44.971c6.231,14.614 9.346,38.254 9.346,70.92l-0,218.888l-90.558,0l-0,-195.677c-0,-33.956 -3.116,-55.877 -9.346,-65.763c-8.379,-12.895 -21.27,-19.342 -38.673,-19.342c-12.676,-0 -24.6,3.868 -35.772,11.605c-11.172,7.737 -19.229,19.074 -24.17,34.01c-4.942,14.936 -7.412,38.523 -7.412,70.76l-0,164.407l-90.559,0l0,-187.618c0,-33.311 -1.611,-54.802 -4.834,-64.473c-3.222,-9.671 -8.218,-16.871 -14.985,-21.599c-6.768,-4.728 -15.953,-7.092 -27.554,-7.092c-13.966,-0 -26.534,3.761 -37.706,11.283c-11.172,7.522 -19.175,18.375 -24.009,32.559c-4.834,14.184 -7.251,37.717 -7.251,70.598l-0,166.342l-35.074,0l-0,-65.09l-27.501,-0l0,65.09l-27.984,0l0,-342.354l27.984,-0l0,57.194l27.501,0l-0,-57.194Zm-27.501,112.212l0,110.034l27.501,0c-0,-35.983 -0,-74.057 -0,-110.034l-27.501,-0Z" style="fill:#fff;fill-rule:nonzero;"/></g></svg>